<?xml version="1.0" encoding="UTF-8"?>
<svg enable-background="new 0 0 97.041 136.553" viewBox="0 0 97.041 136.553" xmlns="http://www.w3.org/2000/svg">
 <defs>
  <linearGradient id="ap" x1=".4395" x2="96.181" gradientUnits="userSpaceOnUse">
   <stop stop-color="#f2f2f2" offset="0"/>
   <stop stop-color="#d8d8d8" offset=".2146"/>
   <stop stop-color="#b6b6b6" offset=".5464"/>
   <stop stop-color="#a2a1a1" offset=".8202"/>
   <stop stop-color="#9a9999" offset="1"/>
  </linearGradient>
  <linearGradient id="ao" x1="29.201" x2="57.857" gradientUnits="userSpaceOnUse">
   <stop stop-color="#fff" offset="0"/>
   <stop stop-color="#f7f7f7" offset=".1635"/>
   <stop stop-color="#e3e2e2" offset=".4124"/>
   <stop stop-color="#c1c0c0" offset=".714"/>
   <stop stop-color="#9a9999" offset="1"/>
  </linearGradient>
  <linearGradient id="an" x1="1.2915" x2="94.973" gradientUnits="userSpaceOnUse">
   <stop stop-color="#fff" offset="0"/>
   <stop stop-color="#8f8d8d" offset="1"/>
  </linearGradient>
  <linearGradient id="am" x1="11.648" x2="84.934" gradientUnits="userSpaceOnUse">
   <stop stop-color="#9c9c9c" offset="0"/>
   <stop offset="1"/>
  </linearGradient>
  <linearGradient id="al" x1="2.1299" x2="94.449" gradientUnits="userSpaceOnUse">
   <stop stop-color="#9c9c9c" offset="0"/>
   <stop offset="1"/>
  </linearGradient>
  <linearGradient id="ak" x1="1.979" x2="94.386" gradientUnits="userSpaceOnUse">
   <stop stop-color="#4a4949" offset="0"/>
   <stop stop-color="#4c4b4b" offset=".014"/>
   <stop stop-color="#6f6e6e" offset=".2972"/>
   <stop stop-color="#888787" offset=".5641"/>
   <stop stop-color="#979797" offset=".8058"/>
   <stop stop-color="#9c9c9c" offset="1"/>
  </linearGradient>
  <linearGradient id="aj" x1="-282.72" x2="-281.35" gradientTransform="matrix(43.996 45.746 45.746 -43.996 -7211.7 31888)" gradientUnits="userSpaceOnUse">
   <stop stop-color="#7c7c7c" offset="0"/>
   <stop stop-color="#000042" offset="1"/>
  </linearGradient>
  <linearGradient id="ai" x1="-282.73" x2="-281.32" gradientTransform="matrix(43.996 45.746 45.746 -43.996 -7211.7 31888)" gradientUnits="userSpaceOnUse">
   <stop stop-color="#a0a0a0" offset="0"/>
   <stop stop-color="#005" offset="1"/>
  </linearGradient>
  <linearGradient id="ah" x1="-257.79" x2="-256.38" gradientTransform="matrix(0 231.57 231.57 0 -1.0502e5 59600)" gradientUnits="userSpaceOnUse">
   <stop stop-color="#fff" offset="0"/>
   <stop offset="1"/>
  </linearGradient>
  <linearGradient id="ag" x1="-56.079" x2="107.37" y1="-27.661" y2="34.824" gradientUnits="userSpaceOnUse">
   <stop stop-color="#fffa5f" offset="0"/>
   <stop stop-color="#9f3300" offset="1"/>
  </linearGradient>
  <linearGradient id="af" x1="-56.874" x2="106.56" y1="-25.553" y2="36.926" gradientUnits="userSpaceOnUse">
   <stop stop-color="#fffa5f" offset="0"/>
   <stop stop-color="#9f3300" offset="1"/>
  </linearGradient>
  <linearGradient id="ae" x1="-56.061" x2="107.37" y1="-27.676" y2="34.802" gradientUnits="userSpaceOnUse">
   <stop stop-color="#fffa5f" offset="0"/>
   <stop stop-color="#9f3300" offset="1"/>
  </linearGradient>
  <linearGradient id="ad" x1="-57.058" x2="106.37" y1="-25.072" y2="37.407" gradientUnits="userSpaceOnUse">
   <stop stop-color="#fffa5f" offset="0"/>
   <stop stop-color="#9f3300" offset="1"/>
  </linearGradient>
  <linearGradient id="ac" x1="-51.07" x2="177.7" y1="-18.475" y2="68.981" gradientUnits="userSpaceOnUse">
   <stop stop-color="#ff8b3f" offset="0"/>
   <stop offset="1"/>
  </linearGradient>
  <linearGradient id="ab" x1="-48.853" x2="179.91" y1="-24.266" y2="63.187" gradientUnits="userSpaceOnUse">
   <stop stop-color="#ff8b3f" offset="0"/>
   <stop offset="1"/>
  </linearGradient>
  <linearGradient id="aa" x1="-48.883" x2="179.85" y1="-24.16" y2="63.285" gradientUnits="userSpaceOnUse">
   <stop stop-color="#ff8b3f" offset="0"/>
   <stop offset="1"/>
  </linearGradient>
  <linearGradient id="z" x1="-51.178" x2="177.53" y1="-18.077" y2="69.355" gradientUnits="userSpaceOnUse">
   <stop stop-color="#ff8b3f" offset="0"/>
   <stop offset="1"/>
  </linearGradient>
  <linearGradient id="y" x1=".26368" x2="160.08" y1="-23.432" y2="37.667" gradientUnits="userSpaceOnUse">
   <stop stop-color="#fff" offset="0"/>
   <stop offset="1"/>
  </linearGradient>
  <linearGradient id="x" x1="-2.6967" x2="157.26" y1="-15.844" y2="45.308" gradientUnits="userSpaceOnUse">
   <stop stop-color="#fff" offset="0"/>
   <stop offset="1"/>
  </linearGradient>
  <linearGradient id="w" x1="-1.7761" x2="158.09" y1="-18.146" y2="42.969" gradientUnits="userSpaceOnUse">
   <stop stop-color="#fff" offset="0"/>
   <stop offset="1"/>
  </linearGradient>
  <linearGradient id="v" x1="-2.536" x2="157.16" y1="-15.896" y2="45.153" gradientUnits="userSpaceOnUse">
   <stop stop-color="#fff" offset="0"/>
   <stop offset="1"/>
  </linearGradient>
  <linearGradient id="u" x1="-1.7134" x2="158.02" y1="-18.119" y2="42.946" gradientUnits="userSpaceOnUse">
   <stop stop-color="#fff" offset="0"/>
   <stop offset="1"/>
  </linearGradient>
  <linearGradient id="t" x1="-51.982" x2="111.45" y1="-38.353" y2="24.127" gradientUnits="userSpaceOnUse">
   <stop stop-color="#fffa5f" offset="0"/>
   <stop stop-color="#9f3300" offset="1"/>
  </linearGradient>
  <linearGradient id="s" x1="-1.4218" x2="158.4" y1="-19.024" y2="42.075" gradientUnits="userSpaceOnUse">
   <stop stop-color="#fff" offset="0"/>
   <stop offset="1"/>
  </linearGradient>
  <linearGradient id="r" x1="-51.988" x2="111.46" y1="-38.355" y2="24.128" gradientUnits="userSpaceOnUse">
   <stop stop-color="#fffa5f" offset="0"/>
   <stop stop-color="#9f3300" offset="1"/>
  </linearGradient>
  <linearGradient id="q" x1="-1.4255" x2="158.41" y1="-19.025" y2="42.077" gradientUnits="userSpaceOnUse">
   <stop stop-color="#fff" offset="0"/>
   <stop offset="1"/>
  </linearGradient>
  <linearGradient id="p" x1="-52.17" x2="111.28" y1="-37.891" y2="24.595" gradientUnits="userSpaceOnUse">
   <stop stop-color="#fffa5f" offset="0"/>
   <stop stop-color="#9f3300" offset="1"/>
  </linearGradient>
  <linearGradient id="o" x1="-1.6065" x2="158.23" y1="-18.561" y2="42.543" gradientUnits="userSpaceOnUse">
   <stop stop-color="#fff" offset="0"/>
   <stop offset="1"/>
  </linearGradient>
  <linearGradient id="n" x1="-52.196" x2="111.28" y1="-37.9" y2="24.596" gradientUnits="userSpaceOnUse">
   <stop stop-color="#fffa5f" offset="0"/>
   <stop stop-color="#9f3300" offset="1"/>
  </linearGradient>
  <linearGradient id="m" x1="-1.6227" x2="158.24" y1="-18.566" y2="42.55" gradientUnits="userSpaceOnUse">
   <stop stop-color="#fff" offset="0"/>
   <stop offset="1"/>
  </linearGradient>
  <linearGradient id="l" x1="-2.1277" x2="157.68" y1="-17.157" y2="43.935" gradientUnits="userSpaceOnUse">
   <stop stop-color="#fff" offset="0"/>
   <stop offset="1"/>
  </linearGradient>
  <linearGradient id="k" x1="-2.13" x2="157.68" y1="-17.157" y2="43.938" gradientUnits="userSpaceOnUse">
   <stop stop-color="#fff" offset="0"/>
   <stop offset="1"/>
  </linearGradient>
  <linearGradient id="j" x1="-3.5105" x2="156.19" y1="-13.362" y2="47.692" gradientUnits="userSpaceOnUse">
   <stop stop-color="#fff" offset="0"/>
   <stop offset="1"/>
  </linearGradient>
  <linearGradient id="i" x1="-3.6909" x2="156.08" y1="-13.038" y2="48.043" gradientUnits="userSpaceOnUse">
   <stop stop-color="#fff" offset="0"/>
   <stop offset="1"/>
  </linearGradient>
  <linearGradient id="h" x1="-46.231" x2="182.95" y1="-31.689" y2="55.925" gradientUnits="userSpaceOnUse">
   <stop stop-color="#ff8b3f" offset="0"/>
   <stop offset="1"/>
  </linearGradient>
  <linearGradient id="g" x1="-3.0166" x2="157.09" y1="-15.168" y2="46.038" gradientUnits="userSpaceOnUse">
   <stop stop-color="#fff" offset="0"/>
   <stop offset="1"/>
  </linearGradient>
  <linearGradient id="f" x1="-46.167" x2="182.9" y1="-31.809" y2="55.761" gradientUnits="userSpaceOnUse">
   <stop stop-color="#ff8b3f" offset="0"/>
   <stop offset="1"/>
  </linearGradient>
  <linearGradient id="e" x1="-2.9749" x2="157.05" y1="-15.297" y2="45.879" gradientUnits="userSpaceOnUse">
   <stop stop-color="#fff" offset="0"/>
   <stop offset="1"/>
  </linearGradient>
  <linearGradient id="d" x1="-46.253" x2="182.61" y1="-31.244" y2="56.25" gradientUnits="userSpaceOnUse">
   <stop stop-color="#ff8b3f" offset="0"/>
   <stop offset="1"/>
  </linearGradient>
  <linearGradient id="c" x1="-3.0985" x2="156.79" y1="-14.745" y2="46.378" gradientUnits="userSpaceOnUse">
   <stop stop-color="#fff" offset="0"/>
   <stop offset="1"/>
  </linearGradient>
  <linearGradient id="be" x1="-46.292" x2="182.67" y1="-31.242" y2="56.291" gradientUnits="userSpaceOnUse">
   <stop stop-color="#ff8b3f" offset="0"/>
   <stop offset="1"/>
  </linearGradient>
  <linearGradient id="bd" x1="-3.1178" x2="156.84" y1="-14.735" y2="46.414" gradientUnits="userSpaceOnUse">
   <stop stop-color="#fff" offset="0"/>
   <stop offset="1"/>
  </linearGradient>
  <linearGradient id="bc" x1="-4.5957" x2="155.23" y1="-10.723" y2="50.376" gradientUnits="userSpaceOnUse">
   <stop stop-color="#fff" offset="0"/>
   <stop offset="1"/>
  </linearGradient>
  <linearGradient id="bb" x1="-1.6553" x2="158.17" y1="-18.416" y2="42.683" gradientUnits="userSpaceOnUse">
   <stop stop-color="#fff" offset="0"/>
   <stop offset="1"/>
  </linearGradient>
  <linearGradient id="ba" x1="60.604" x2="89.07" y1=".1998" y2="11.082" gradientUnits="userSpaceOnUse">
   <stop stop-color="#fff" offset="0"/>
   <stop offset="1"/>
  </linearGradient>
  <linearGradient id="az" x1="60.583" x2="89.042" y1=".26286" y2="11.143" gradientUnits="userSpaceOnUse">
   <stop stop-color="#fff" offset="0"/>
   <stop offset="1"/>
  </linearGradient>
  <linearGradient id="ay" x1="1504.9" x2="1847.9" gradientTransform="matrix(-.305 -.9523 .9523 -.305 1348.3 1280.8)" gradientUnits="userSpaceOnUse">
   <stop stop-color="#fff" offset="0"/>
   <stop offset="1"/>
  </linearGradient>
  <linearGradient id="ax" x1="1504.9" x2="1847.9" gradientTransform="matrix(-.305 -.9523 .9523 -.305 1348.3 1280.8)" gradientUnits="userSpaceOnUse">
   <stop stop-color="#fff" offset="0"/>
   <stop offset="1"/>
  </linearGradient>
  <linearGradient id="aw" x1="1504.9" x2="1847.9" gradientTransform="matrix(-.305 -.9523 .9523 -.305 1348.3 1280.8)" gradientUnits="userSpaceOnUse">
   <stop stop-color="#fff" offset="0"/>
   <stop offset="1"/>
  </linearGradient>
  <linearGradient id="av" x1="-259.94" x2="-259.15" gradientTransform="matrix(73.999 463.33 463.33 -73.999 -1.9559e5 1.5466e5)" gradientUnits="userSpaceOnUse">
   <stop stop-color="#fff" offset="0"/>
   <stop offset="1"/>
  </linearGradient>
  <linearGradient id="au" x1="-259.93" x2="-259.17" gradientTransform="matrix(73.999 463.33 463.33 -73.999 -1.9559e5 1.5466e5)" gradientUnits="userSpaceOnUse">
   <stop stop-color="#fff" offset="0"/>
   <stop offset="1"/>
  </linearGradient>
  <linearGradient id="at" x1="-259.85" x2="-259.34" gradientTransform="matrix(73.999 463.33 463.33 -73.999 -1.9559e5 1.5466e5)" gradientUnits="userSpaceOnUse">
   <stop stop-color="#fff" offset="0"/>
   <stop offset="1"/>
  </linearGradient>
  <linearGradient id="as" x1="-259.88" x2="-259.27" gradientTransform="matrix(73.999 463.33 463.33 -73.999 -1.9559e5 1.5466e5)" gradientUnits="userSpaceOnUse">
   <stop stop-color="#fff" offset="0"/>
   <stop offset="1"/>
  </linearGradient>
  <linearGradient id="b" x1="-259.91" x2="-259.2" gradientTransform="matrix(73.999 463.33 463.33 -73.999 -1.9559e5 1.5466e5)" gradientUnits="userSpaceOnUse">
   <stop stop-color="#fff" offset="0"/>
   <stop offset="1"/>
  </linearGradient>
  <linearGradient id="a" x1="-259.93" x2="-259.16" gradientTransform="matrix(73.999 463.33 463.33 -73.999 -1.9559e5 1.5466e5)" gradientUnits="userSpaceOnUse">
   <stop stop-color="#fff" offset="0"/>
   <stop offset="1"/>
  </linearGradient>
  <linearGradient id="ar" x1="-259.92" x2="-259.19" gradientTransform="matrix(73.999 463.33 463.33 -73.999 -1.9559e5 1.5466e5)" gradientUnits="userSpaceOnUse">
   <stop stop-color="#fff" offset="0"/>
   <stop offset="1"/>
  </linearGradient>
  <linearGradient id="aq" x1="-259.93" x2="-259.16" gradientTransform="matrix(73.999 463.33 463.33 -73.999 -1.9559e5 1.5466e5)" gradientUnits="userSpaceOnUse">
   <stop stop-color="#fff" offset="0"/>
   <stop offset="1"/>
  </linearGradient>
 </defs>
 <path d="m48.295,23.044c10.924,0 22.182.946 32.663,4.201 4.447,1.381 13.824,4.377 13.516,10.488 1.3-6.076-8.066-9.39-12.289-10.793-10.806-3.594-22.566-4.579-33.89-4.579-11.29,0-23.022.977-33.792,4.579-4.455,1.49-12.857,4.69-12.423,10.414 .299-5.474 7.889-8.21 12.16-9.657 10.839-3.671 22.68-4.653 34.055-4.653" fill="#c6c6c6"/>
 <path d="m96.181,36.456c-.529-9.325-20.749-11.749-27.064-12.666-16.528-2.4-34.175-2.2-50.476,1.66-4.656,1.103-19.103,4.338-18.156,11.56 .7,5.342 1.4,10.685 2.1,16.026 2.333,17.798 4.666,35.598 7,53.399 .543,4.147 1.198,8.091 1.056,12.248-.397,11.651 14.116,14.616 23.371,16.054 11.62,1.803 23.998,1.531 35.405-1.45 5.328-1.392 16.375-4.659 16.375-11.833 0-7.308 1.036-14.271 2-21.551 2.796-21.148 5.592-42.297 8.389-63.447" fill="url(#ap)"/>
 <path d="m42.581,73.565c.369,7.982 11.897,10.229 14.28,17.691 .993,3.108 1.824,8.118-.508,10.892-1.7,2.021-4.618,2.221-6.988,2.919-8.005,2.356-5.823,13.795-2.577,19.34 1.302,2.222 7.083,8.905 10.42,8.035-3.398.886-8.741-.57-11.998-1.391-6.106-1.538-12.625-4.899-14.112-11.576-1.637-7.357.102-16.878 4.581-22.995 2.937-4.011 7.663-6.275 10.508-10.269 9.021-12.662-20.855-12.139-16.562-24.43 2.055-5.883 9.194-6.574 14.518-6.278 3.444.192 9.571.299 12.666,2.079-1.224-.705-5.903,1.867-6.893,2.425-4.999,2.824-7.598,7.839-7.335,13.558" fill="url(#ao)"/>
 <path d="m81.946,27.077c2.901,14.555 3.567,30.35 3.28,45.172-.121,6.304-.51,12.981-5.077,17.763-4.552,4.763-8.333,9.252-11.424,15.168-2.271,4.345-4.036,9.475-8.974,11.388-8.992,3.478-21.455,2.737-30.831,2.451-3.769-.116-7.495-.842-10.99-2.277-1.231-2.038-2.511-4.213-3.075-6.552-.66-2.741.742-4.973 1.28-7.582 1.278-6.198-1.117-12.744-2.463-18.713-1.683-7.461-3.166-14.984-4.052-22.583-1.306-11.193-1.064-22.49 2.281-33.323-2.968,1.113-11.168,4.08-10.58,8.559l.597,4.556c.98,7.468 1.959,14.936 2.94,22.404l6.469,49.299c.742,5.663-1.001,11.145 4.197,15.252 11.076,8.754 29.798,8.625 42.998,7.175 9.224-1.014 25.914-3.431 26.244-15.317 .115-4.131.711-8.145 1.242-12.243l6.48-49.831 2.391-18.387c1.001-7.686-6.346-10.289-12.933-12.379" fill="url(#an)"/>
 <path d="m48.105,125.351c-11.148,0-27.725-.623-36.393-8.921-.475,6.727 1.627,10.082 7.906,12.983 8.784,4.057 19.072,5.097 28.634,5.097s19.85-1.04 28.634-5.097c6.244-2.887 8.652-6.507 7.922-13.294-8.381,8.669-25.628,9.232-36.703,9.232" fill="url(#am)"/>
 <path d="m93.361,50.893c.362-3.855.725-7.711 1.088-11.567-.731,5.745-9.607,8.405-14.108,9.751-10.313,3.087-21.323,4.015-32.046,4.015-10.755,0-21.805-.931-32.146-4.046-4.476-1.348-13.403-4.048-14.02-9.821 .281,2.875-.408,11.064 2.171,12.467 8.105,4.41 17.543,6.58 26.603,7.882 19.327,2.774 45.423,2.478 62.458-8.681" fill="url(#al)"/>
 <path d="m94.386,37.253c0,5.893-9.191,8.796-13.535,10.146-10.484,3.254-21.742,4.202-32.669,4.202s-22.185-.948-32.667-4.202c-4.345-1.349-13.536-4.254-13.536-10.146s9.195-8.793 13.536-10.142c10.482-3.256 21.74-4.207 32.667-4.207s22.187.951 32.669,4.207c4.338,1.349 13.535,4.254 13.535,10.142" fill="url(#ak)"/>
 <path d="m21.927,25.458c-5.23,3.479-4.108,8.229-4.108,13.666 0,2.857 1.475,5.639 2.156,8.366 .612,2.444 6.84,2.497 9.24,2.836 8.469,1.193 17.069,1.512 25.609,1.125 4.678-.211 19.804.166 21.782-4.287 2.143-4.824 5.749-9.696 2.722-15.15-.819-1.479-2.108-2.554-3.23-3.789-2.057-2.271-1.711-2.845-5.21-3.46-15.974-2.814-33.087-2.723-48.961.693" fill="#7c7c7c"/>
 <path d="m65.501,50.539c-3.418.122-10.491,1.398-8.115-3.595 2.249-4.729-4.618-8.429-3.757-13.577 .607-3.635 4.905-4.71 7.802-5.885 1.266-.513 2.973-1.175 3.499-2.573 .658-1.749-10.49-1.871-12.323-1.931-5.083-.167-10.172-.041-15.24.357-1.431.114-6.377-.292-6.015,1.574 .222,1.136 1.073,1.877 2.086,2.331 2.267,1.017 5.066.865 7.129,2.351 1.981,1.426 1.158,4.04 1.749,6.098 .776,2.709 4.08,5.694 3.808,8.573-.441,4.707-12.224,5.719-15.261,6.277 11.471,1.438 23.166,1.438 34.638,0" fill="#a0a0a0"/>
 <path d="m38.188,28.556c-8.507,4.351-13.656,10.84-15.692,20.138 3.659.594 7.817,1.997 11.476,1.239 1.351-.28 3.175.062 2.833-1.573-.34-1.627-.52-3.288-.544-4.949-.073-4.961 1.301-9.854 3.899-14.08-.625-.339-1.284-.597-1.972-.775" fill="url(#aj)"/>
 <path d="m37.01,49.254c-1.578.384-3.167.716-4.761,1.023l5.34.868c-.233-.618-.426-1.248-.579-1.891m4.802-22.328c-1.237.476-2.444,1.026-3.624,1.63 2.499.703 1.978.527 3.624-1.63" fill="url(#ai)"/>
 <path d="m3.262,60.998c2.483,1.432 18.454,9.976 46.615,10.417 17.889.28 33.263-4.191 43.604-9.782" fill="none" stroke="#7f7f7f"/>
 <path d="m2.92,60.795 .342.203" fill="none" stroke="#7f7f7f"/>
 <path d="m4.334,70.076c3.129,1.757 18.987,9.855 46.383,10.285 16.566.259 30.976-3.557 41.228-8.563" fill="none" stroke="#7f7f7f"/>
 <path d="m6.163,80.394c5.773,2.813 20.782,8.822 44.275,9.189 15.904.248 29.82-3.258 39.98-7.968" fill="none" stroke="#7f7f7f"/>
 <path d="m7.225,89.594c5.268,2.655 20.509,9.11 44.888,9.491 14.255.225 26.912-2.571 36.699-6.545" fill="none" stroke="#7f7f7f"/>
 <path d="m8.542,99.31c6.385,2.959 21.029,8.372 43.291,8.721 13.897.217 26.276-2.434 35.958-6.247" fill="none" stroke="#7f7f7f"/>
 <path d="m9.797,109.376c6.938,3.034 21.126,7.829 42.037,8.157 13.256.207 25.13-2.195 34.6-5.727" fill="none" stroke="#7f7f7f"/>
 <path d="m49.04 117.25v-45.838" fill="none" stroke="#7f7f7f"/>
 <path d="m37.3 71.135v45.281" fill="none" stroke="#7f7f7f"/>
 <path d="m26.4 68.899v45.559" fill="none" stroke="#7f7f7f"/>
 <path d="m18.015 67.501 1.118 45.56" fill="none" stroke="#7f7f7f"/>
 <path d="m10.188 64.427 3.076 45.839" fill="none" stroke="#7f7f7f"/>
 <path d="m79.506 114.18 5.59-48.913" fill="none" stroke="#7f7f7f"/>
 <path d="m73.637 115.02 2.236-46.677" fill="none" stroke="#7f7f7f"/>
 <path d="m67.208 116.69 0.56-45.838" fill="none" stroke="#7f7f7f"/>
 <path d="m58.543 117.25 1.118-45.559" fill="none" stroke="#7f7f7f"/>
 <path d="m9.136,29.118c13.587-6.765 30.977-7.272 45.803-6.609 7.743.346 15.534,1.249 23.049,3.198 5.339,1.384 14.253,3.751 16.981,9.133 1.965,3.875-.931,12.244-1.454,16.205l-4.227,31.935c-1.22,9.224-2.44,18.443-3.663,27.666-.432,3.268-.707,6.295-.605,9.595 .162,5.297-4.275,8.526-8.653,10.544-13.716,6.321-31.606,6.36-46.119,3.264-5.381-1.148-11.395-2.885-15.554-6.695-4.024-3.687-2.557-6.595-3.162-11.242-1.907-14.639-3.814-29.277-5.721-43.912l-3.547-27.225c-1.045-8.022-2.289-11.754 6.872-15.857m39.159-7.489c-13.833,0-30.438.751-42.78,7.825-5.13,2.941-5.994,5.773-5.313,10.976 2.179,16.661 4.36,33.324 6.542,49.987l2.824,21.578c.523,3.99-.731,9.279 1.143,12.733 5.711,10.533 25.178,11.577 35.337,11.786 11.574.239 30.344-.349 38.551-10.243 2.828-3.409 1.326-7.002 1.853-10.956 .486-3.672.974-7.345 1.46-11.016 1.821-13.71 3.64-27.421 5.459-41.132 1.178-8.869 2.354-17.74 3.533-26.61 .675-5.094-8.189-8.475-11.638-9.72-11.679-4.212-24.649-5.208-36.971-5.208" fill="url(#ah)"/>
 <path d="m56.547,7.431c.439-.263.894-.51 1.36-.731l-2.741-1.048c-1.854-.709-4.117-1.672-6.144-1.716-2.343,1.473-3.397,5.27-4.371,7.815l-3.143,8.222 3.477.233c1.196-3.628 2.26-7.297 3.129-10.992 1.319-3.459 5.021-2.946 8.433-1.783z" fill="#c68526"/>
 <path d="m44.545,7.101c1.671-4.958 5.248-5.316 9.474-3.701l6.229,2.381c.228-.07.441-.129.651-.181l-4.067-1.555c-3.426-1.31-8.816-4.538-11.598-.444-1.743,2.566-2.52,6.232-3.61,9.084l-2.778,7.264c.271-.063.567-.088.89-.083l5.219-13.651c-.148.265-.285.56-.41.886z" fill="#c68526"/>
 <path d="m91.926,17.894c3.666,1.4 3.676,5.175 2.367,8.227 .312-.813.42-1.532.402-2.185-.102,1.229-.478,2.557-1.005,3.933-2.006,5.244-4.011,10.489-6.016,15.734l-.8,2.089c.321-.133.642-.274.961-.419l7.849-20.527c1.709-4.471-1.538-6.435-5.058-7.778l-6.358-2.432c.148.184.296.384.444.601l7.214,2.757z" fill="#c68526"/>
 <path d="m93.192,20.869c-1.657-1.495-4.336-2.336-6.348-3.105-.325-.125-.65-.249-.978-.374 .138.373.258.756.359,1.148 2.31.887 4.448,2.027 5.263,3.601 1.352,2.607-1.049,5.804-2.144,8.068-2.066,4.267-4.071,8.568-5.866,12.956-.577,1.416-1.117,2.849-1.633,4.291 .877-.266 1.869-.581 2.9-.945 2.226-5.819 4.448-11.636 6.675-17.455 .933-2.435 2.453-5.68 1.772-8.185z" fill="#c68526"/>
 <path d="m44.256,4.409c1.9-4.968 6.672-3.152 10.225-1.794l7.328,2.802c.224-.029.427-.042.592-.034 .237.012.635.074 1.088.136-3.838-1.467-7.676-2.936-11.514-4.402-4.376-1.673-7.305.796-8.794,4.692-1.89,4.945-3.782,9.89-5.672,14.834 .157-.148.326-.277.513-.387 1.869-5.389 3.745-10.851 6.234-15.847z" fill="url(#ag)"/>
 <path d="m95.705,27.516c1.434-3.748 2.844-8.592-2.218-10.528l-11.348-4.338c.504.343.947.678 1.357,1.061l9.81,3.75c5.42,2.072 2.847,7.47 1.425,11.191-2.079,5.437-4.158,10.875-6.237,16.312 .227-.11.451-.224.671-.34l1.168-3.052 5.372-14.056z" fill="url(#af)"/>
 <path d="m45.234,3.6c2.782-4.093 8.172-.866 11.598.444l4.067,1.555c.331-.083.643-.148.909-.183l-7.328-2.802c-3.553-1.358-8.325-3.174-10.225,1.794-2.489,4.996-4.365,10.458-6.234,15.848 .244-.143.524-.239.824-.309l2.778-7.264c1.091-2.85 1.868-6.517 3.611-9.083z" fill="#c68526"/>
 <path d="m45.234,3.6c2.782-4.093 8.172-.866 11.598.444l4.067,1.555c.331-.083.643-.148.909-.183l-7.328-2.802c-3.553-1.358-8.325-3.174-10.225,1.794-2.489,4.996-4.365,10.458-6.234,15.848 .244-.143.524-.239.824-.309l2.778-7.264c1.091-2.85 1.868-6.517 3.611-9.083z" fill="url(#ae)"/>
 <path d="m84.269,14.535 6.358,2.432c3.52,1.344 6.767,3.307 5.058,7.778-2.616,6.843-5.232,13.685-7.849,20.527 .221-.102.44-.202.658-.309 2.079-5.437 4.158-10.875 6.237-16.312 1.422-3.721 3.995-9.119-1.425-11.191l-9.81-3.75c.267.246.523.517.773.825z" fill="#c68526"/>
 <path d="m84.269,14.535 6.358,2.432c3.52,1.344 6.767,3.307 5.058,7.778-2.616,6.843-5.232,13.685-7.849,20.527 .221-.102.44-.202.658-.309 2.079-5.437 4.158-10.875 6.237-16.312 1.422-3.721 3.995-9.119-1.425-11.191l-9.81-3.75c.267.246.523.517.773.825z" fill="url(#ad)"/>
 <path d="m49.022,3.936c2.026.044 4.29,1.007 6.144,1.716l2.741,1.048c.799-.381 1.608-.692 2.341-.919l-6.228-2.381c-4.227-1.616-7.803-1.257-9.474,3.701 .125-.326.262-.62.41-.886l-5.219,13.651c.203.001.403,0 .63.031l1.143.077 3.143-8.222c.972-2.546 2.027-6.343 4.369-7.816z" fill="#ffb600"/>
 <path d="m85.867,17.39 .978.374c2.012.769 4.69,1.61 6.348,3.105 .681,2.505-.84,5.75-1.771,8.186-2.227,5.819-4.449,11.636-6.675,17.455 .698-.246 1.413-.519 2.128-.817 .267-.695.533-1.393.8-2.089 2.005-5.245 4.01-10.491 6.016-15.734 .527-1.375.903-2.704 1.005-3.933 .018.653-.091,1.372-.402,2.185 1.309-3.052 1.299-6.827-2.367-8.227l-7.213-2.758c.109.16.22.32.331.502 .306.5.586,1.106.822,1.751z" fill="#ffb600"/>
 <path d="m89.97,26.932c2.08-4.19-.348-5.808-3.495-7.102 .107.861.086,1.688-.111,2.386 .526.456.926.948 1.113,1.488 .779,2.246-1.485,5.3-2.385,7.188-2.025,4.246-4.001,8.533-5.682,12.929-.6,1.568-1.158,3.167-1.682,4.779 1.031-.262 2.061-.533 3.079-.837 2.494-7.162 5.801-14.056 9.163-20.831z" fill="#fff"/>
 <path d="m53.619,10.487c.219-.871.99-1.714 2.021-2.459l-.305-.117c-7.34-2.806-7.617,6.419-9.123,11.163-.126.399-.275.79-.406,1.188l3.037.203c.364-1.141.719-2.285 1.057-3.436 .702-2.389.903-5.854 3.719-6.542z" fill="#fff"/>
 <path d="m89.346,30.208c1.095-2.265 3.495-5.461 2.144-8.068-.814-1.573-2.953-2.713-5.263-3.601 .05.193.097.39.135.584 2.616,1.038 5.063,2.485 5.112,4.676 .058,2.636-2.319,5.769-3.39,8.014-2.095,4.392-4.138,8.827-5.876,13.373-.307.803-.597,1.614-.885,2.426l.523-.158c.516-1.442 1.056-2.875 1.633-4.291 1.795-4.387 3.8-8.688 5.867-12.955z" fill="#c68526"/>
 <path d="m89.346,30.208c1.095-2.265 3.495-5.461 2.144-8.068-.814-1.573-2.953-2.713-5.263-3.601 .05.193.097.39.135.584 2.616,1.038 5.063,2.485 5.112,4.676 .058,2.636-2.319,5.769-3.39,8.014-2.095,4.392-4.138,8.827-5.876,13.373-.307.803-.597,1.614-.885,2.426l.523-.158c.516-1.442 1.056-2.875 1.633-4.291 1.795-4.387 3.8-8.688 5.867-12.955z" fill="url(#ac)"/>
 <path d="m49.657,7.811c1.642-1.251 4.089-.938 6.529-.162l.36-.218c-3.412-1.163-7.114-1.676-8.433,1.784-.869,3.695-1.933,7.364-3.129,10.992l.386.026c.621-1.914 1.224-3.832 1.782-5.763 .551-1.899.774-5.337 2.505-6.659z" fill="#c68526"/>
 <path d="m49.657,7.811c1.642-1.251 4.089-.938 6.529-.162l.36-.218c-3.412-1.163-7.114-1.676-8.433,1.784-.869,3.695-1.933,7.364-3.129,10.992l.386.026c.621-1.914 1.224-3.832 1.782-5.763 .551-1.899.774-5.337 2.505-6.659z" fill="url(#ab)"/>
 <path d="m55.336,7.911 .305.117c.178-.129.355-.257.546-.379-2.44-.776-4.888-1.089-6.529.162-1.731,1.323-1.954,4.76-2.504,6.659-.558,1.931-1.161,3.85-1.782,5.763l.436.029c.131-.397.28-.789.406-1.188 1.505-4.744 1.782-13.969 9.122-11.163z" fill="#fff"/>
 <path d="m55.336,7.911 .305.117c.178-.129.355-.257.546-.379-2.44-.776-4.888-1.089-6.529.162-1.731,1.323-1.954,4.76-2.504,6.659-.558,1.931-1.161,3.85-1.782,5.763l.436.029c.131-.397.28-.789.406-1.188 1.505-4.744 1.782-13.969 9.122-11.163z" fill="url(#aa)"/>
 <path d="m81.323,47.612c.288-.813.578-1.623.885-2.426 1.738-4.546 3.781-8.981 5.876-13.373 1.07-2.245 3.447-5.377 3.39-8.014-.05-2.191-2.496-3.638-5.112-4.676 .047.237.084.473.113.707 3.147,1.294 5.575,2.912 3.495,7.102-3.361,6.775-6.669,13.669-9.162,20.831l.132-.036 .383-.115z" fill="#fff"/>
 <path d="m81.323,47.612c.288-.813.578-1.623.885-2.426 1.738-4.546 3.781-8.981 5.876-13.373 1.07-2.245 3.447-5.377 3.39-8.014-.05-2.191-2.496-3.638-5.112-4.676 .047.237.084.473.113.707 3.147,1.294 5.575,2.912 3.495,7.102-3.361,6.775-6.669,13.669-9.162,20.831l.132-.036 .383-.115z" fill="url(#z)"/>
 <path d="m62.816,50.392c.863-.058 1.807.113 2.787.43 4.092-.49 8.149-1.211 12.125-2.222 .523-1.611 1.082-3.211 1.682-4.779 1.681-4.396 3.656-8.683 5.682-12.929 .899-1.888 3.164-4.942 2.385-7.188-.188-.54-.587-1.033-1.113-1.488-.399,1.412-1.521,2.276-3.817,1.701-3.735-.937-7.312-2.77-10.879-4.218-5.3-2.154-12.939-3.255-17.207-6.993-.829-.726-1.026-1.48-.841-2.22-2.816.688-3.018,4.153-3.719,6.542-.338,1.151-.692,2.295-1.057,3.436l7.18.481c2.315.155 4.267,2.776 5.692,4.375 1.207,1.351 4.77,4.777 4.057,6.877-1.643,4.838-2.339,9.991-2.806,15.058 .005.165.025.324.025.489 0,.896-.071,1.777-.176,2.648z" fill="#f4f2f2"/>
 <path d="m62.816,50.392c-.03.248-.078.488-.115.731 .968-.092 1.936-.187 2.902-.302-.98-.316-1.923-.487-2.787-.429z" fill="#d8d8d8"/>
 <path d="m54.689,11.432c1.216,2.626 7.563,3.686 10.014,4.575 1.999.727 4.015,1.414 5.984,2.214 3.033,1.231 6.045,2.528 9.097,3.708 1.277.495 3.679,1.742 5.104,1.133 1.597-.687.441-4.583-.012-5.602-1.638-3.682-7.065-4.773-6.01-9.02 .991-3.985-1.966-7.236-6.023-7.425-2.23-.104-3.879,1.412-4.852,3.285-1.161,2.236-2.067,2.428-4.583,2.14-1.607.045-10.273,1.664-8.719,4.992zm16.425-7.216c.372-.973 1.11-1.468 1.931-1.61-.685,0-1.244.188-1.422.649 .838-2.195 6.023-.56 5.112,1.822 .23-.604-.205-1.186-.905-1.635 .749.676 1.149,1.682.704,2.847-1.26,3.291-6.68,1.22-5.42-2.073zm-14.505,8.268c.136-.354 27.386,10.065 27.251,10.419-.136.355-27.385-10.064-27.251-10.419zm27.922,8.665c-.141.366-28.082-10.348-27.953-10.687 1.266-3.309 11.13-1.212 13.05-.656 4.329,1.258 8.309,3.429 11.474,6.669 .52.535 3.792,3.722 3.429,4.674zm-1.677-3.681c.688-1.798-8.097-6.232-9.009-6.629-1.021-.44-13.093-4.514-13.872-2.474 .893-2.337 11.524.927 12.704,1.378 1.285.492 11.121,5.26 10.177,7.725z" fill="#c6c6c6"/>
 <path d="m65.167,6.073c3.103-.007 3.21-5.319 7.123-5.553 3.97-.238 7.833,3.013 7.249,7.091-.264,1.844-1.085,2.948.569,4.263l2.031.776c-.354-.24-.733-.487-1.16-.765-2.524-1.651-.634-3.561-.901-6.034-.441-4.087-5.917-7.002-9.628-5.407-1.95.838-3.185,2.751-3.916,4.664-.277.731-1.863.573-3.046.412 .482.185.965.37 1.448.554l.231-.001z" fill="url(#y)"/>
 <path d="m58.305,6.852-.398-.152c-.467.221-.921.468-1.36.731l.35.121c.443-.286.916-.515 1.408-.7z" fill="#c68526"/>
 <path d="m58.305,6.852-.398-.152c-.467.221-.921.468-1.36.731l.35.121c.443-.286.916-.515 1.408-.7z" fill="url(#x)"/>
 <path d="m62.271,6.125-1.372-.525c-.21.052-.424.111-.651.181l1.084.414c.313-.03.625-.053.939-.07z" fill="#c68526"/>
 <path d="m62.271,6.125-1.372-.525c-.21.052-.424.111-.651.181l1.084.414c.313-.03.625-.053.939-.07z" fill="url(#w)"/>
 <path d="m85.867,17.39-.814-.311c.195.399.379.811.546,1.228 .21.075.42.15.628.231-.102-.392-.222-.775-.36-1.148z" fill="#c68526"/>
 <path d="m85.867,17.39-.814-.311c.195.399.379.811.546,1.228 .21.075.42.15.628.231-.102-.392-.222-.775-.36-1.148z" fill="url(#v)"/>
 <path d="m84.713,15.136c-.148-.217-.296-.417-.444-.601l-.915-.35c.121.165.254.364.397.583l.962.368z" fill="#c68526"/>
 <path d="m84.713,15.136c-.148-.217-.296-.417-.444-.601l-.915-.35c.121.165.254.364.397.583l.962.368z" fill="url(#u)"/>
 <path d="m80.19,11.948c.676.512 1.604.867 2.32,1.385l.986.377c-.41-.383-.854-.717-1.357-1.061l-2.031-.776 .082.075z" fill="url(#t)"/>
 <path d="m80.19,11.948c.676.512 1.604.867 2.32,1.385l.986.377c-.41-.383-.854-.717-1.357-1.061l-2.031-.776 .082.075z" fill="url(#s)"/>
 <path d="m61.809,5.417 1.741.666c.467-.007.929-.009 1.387-.01l-1.448-.554c-.453-.062-.851-.124-1.088-.136-.166-.008-.369.005-.592.034z" fill="url(#r)"/>
 <path d="m61.809,5.417 1.741.666c.467-.007.929-.009 1.387-.01l-1.448-.554c-.453-.062-.851-.124-1.088-.136-.166-.008-.369.005-.592.034z" fill="url(#q)"/>
 <path d="m62.271,6.125c.426-.023.853-.036 1.278-.042l-1.741-.666c-.267.035-.578.1-.909.183 .458.175.915.35 1.372.525z" fill="#c68526"/>
 <path d="m62.271,6.125c.426-.023.853-.036 1.278-.042l-1.741-.666c-.267.035-.578.1-.909.183 .458.175.915.35 1.372.525z" fill="url(#p)"/>
 <path d="m62.271,6.125c.426-.023.853-.036 1.278-.042l-1.741-.666c-.267.035-.578.1-.909.183 .458.175.915.35 1.372.525z" fill="url(#o)"/>
 <path d="m83.044,13.789c.086.098.193.237.31.396l.915.35c-.25-.308-.506-.579-.771-.824l-.986-.377c.193.139.38.283.532.455z" fill="#c68526"/>
 <path d="m83.044,13.789c.086.098.193.237.31.396l.915.35c-.25-.308-.506-.579-.771-.824l-.986-.377c.193.139.38.283.532.455z" fill="url(#n)"/>
 <path d="m83.044,13.789c.086.098.193.237.31.396l.915.35c-.25-.308-.506-.579-.771-.824l-.986-.377c.193.139.38.283.532.455z" fill="url(#m)"/>
 <path d="m61.332,6.195-1.084-.414c-.732.227-1.542.538-2.341.919l.397.152c.953-.358 1.977-.554 3.028-.657z" fill="#ffb600"/>
 <path d="m61.332,6.195-1.084-.414c-.732.227-1.542.538-2.341.919l.397.152c.953-.358 1.977-.554 3.028-.657z" fill="url(#l)"/>
 <path d="m85.044,15.638c-.111-.182-.222-.342-.331-.502l-.962-.368c.402.619.87,1.426 1.302,2.312l.814.311c-.236-.646-.516-1.252-.823-1.753z" fill="#ffb600"/>
 <path d="m85.044,15.638c-.111-.182-.222-.342-.331-.502l-.962-.368c.402.619.87,1.426 1.302,2.312l.814.311c-.236-.646-.516-1.252-.823-1.753z" fill="url(#k)"/>
 <path d="m86.475,19.83-.399-.162c.259.916.354,1.775.201,2.47 .031.024.057.052.087.078 .197-.698.218-1.526.111-2.386z" fill="#fff"/>
 <path d="m86.475,19.83-.399-.162c.259.916.354,1.775.201,2.47 .031.024.057.052.087.078 .197-.698.218-1.526.111-2.386z" fill="url(#j)"/>
 <path d="m54.436,10.346c.05-.132.106-.264.188-.403 .412-.71.895-1.285 1.428-1.758l-.41-.156c-1.031.745-1.803,1.588-2.021,2.459 .154-.037.283-.101.452-.122 .12-.016.241-.015.363-.02z" fill="#fff"/>
 <path d="m54.436,10.346c.05-.132.106-.264.188-.403 .412-.71.895-1.285 1.428-1.758l-.41-.156c-1.031.745-1.803,1.588-2.021,2.459 .154-.037.283-.101.452-.122 .12-.016.241-.015.363-.02z" fill="url(#i)"/>
 <path d="m56.896,7.552-.35-.121c-.12.071-.242.143-.36.218l.376.128c.109-.08.221-.154.334-.225z" fill="#c68526"/>
 <path d="m56.896,7.552-.35-.121c-.12.071-.242.143-.36.218l.376.128c.109-.08.221-.154.334-.225z" fill="url(#h)"/>
 <path d="m56.896,7.552-.35-.121c-.12.071-.242.143-.36.218l.376.128c.109-.08.221-.154.334-.225z" fill="url(#g)"/>
 <path d="m86.227,18.539c-.208-.081-.418-.157-.628-.231 .084.204.166.41.239.616l.523.2c-.038-.196-.085-.392-.134-.585z" fill="#c68526"/>
 <path d="m86.227,18.539c-.208-.081-.418-.157-.628-.231 .084.204.166.41.239.616l.523.2c-.038-.196-.085-.392-.134-.585z" fill="url(#f)"/>
 <path d="m86.227,18.539c-.208-.081-.418-.157-.628-.231 .084.204.166.41.239.616l.523.2c-.038-.196-.085-.392-.134-.585z" fill="url(#e)"/>
 <path d="m86.361,19.123c-.174-.069-.35-.135-.523-.2 .087.25.169.499.237.745l.399.162c-.029-.234-.066-.47-.113-.707z" fill="#fff"/>
 <path d="m86.361,19.123c-.174-.069-.35-.135-.523-.2 .087.25.169.499.237.745l.399.162c-.029-.234-.066-.47-.113-.707z" fill="url(#d)"/>
 <path d="m86.361,19.123c-.174-.069-.35-.135-.523-.2 .087.25.169.499.237.745l.399.162c-.029-.234-.066-.47-.113-.707z" fill="url(#c)"/>
 <path d="m56.563,7.777-.376-.128c-.19.122-.368.25-.546.379l.41.156c.165-.147.336-.281.512-.407z" fill="#fff"/>
 <path d="m56.563,7.777-.376-.128c-.19.122-.368.25-.546.379l.41.156c.165-.147.336-.281.512-.407z" fill="url(#be)"/>
 <path d="m56.563,7.777-.376-.128c-.19.122-.368.25-.546.379l.41.156c.165-.147.336-.281.512-.407z" fill="url(#bd)"/>
 <path d="m84.791,23.615c-2.958.638-7.215-2.032-9.799-3.116-5.174-2.167-10.481-3.918-15.715-5.921-1.82-.699-5.809-1.774-4.842-4.232-.121.005-.242.004-.364.019-.169.021-.298.085-.452.122-.186.74.012,1.494.841,2.22 4.268,3.737 11.907,4.839 17.207,6.993 3.567,1.448 7.144,3.281 10.879,4.218 2.296.575 3.418-.29 3.817-1.701l-.087-.078c-.16.734-.599,1.285-1.485,1.476z" fill="#f4f2f2"/>
 <path d="m84.791,23.615c-2.958.638-7.215-2.032-9.799-3.116-5.174-2.167-10.481-3.918-15.715-5.921-1.82-.699-5.809-1.774-4.842-4.232-.121.005-.242.004-.364.019-.169.021-.298.085-.452.122-.186.74.012,1.494.841,2.22 4.268,3.737 11.907,4.839 17.207,6.993 3.567,1.448 7.144,3.281 10.879,4.218 2.296.575 3.418-.29 3.817-1.701l-.087-.078c-.16.734-.599,1.285-1.485,1.476z" fill="url(#bc)"/>
 <path d="m61.332,6.195c-1.051.104-2.075.299-3.027.657-.492.185-.965.414-1.408.7-.113.071-.226.145-.334.225-.176.126-.347.26-.512.407-.533.473-1.016,1.048-1.428,1.758-.081.14-.138.271-.188.403-.967,2.458 3.021,3.533 4.842,4.232 5.233,2.003 10.541,3.755 15.715,5.921 2.584,1.084 6.841,3.754 9.799,3.116 .886-.191 1.325-.742 1.485-1.478 .153-.695.058-1.554-.201-2.47-.068-.246-.15-.495-.237-.745-.073-.206-.155-.412-.239-.616-.167-.417-.351-.829-.546-1.228-.432-.886-.899-1.692-1.302-2.312-.144-.219-.276-.418-.397-.583s-.224-.299-.31-.396c-.152-.171-.339-.315-.533-.455-.717-.519-1.645-.873-2.32-1.385l-.082-.075c-1.654-1.315-.833-2.419-.569-4.263 .584-4.078-3.279-7.329-7.249-7.091-3.913.234-4.021,5.546-7.123,5.553h-.23c-.458.001-.92.003-1.387.01-.426.006-.853.019-1.278.042-.316.02-.628.043-.941.073zm6.659-1.894c.973-1.874 2.621-3.389 4.852-3.285 4.058.189 7.015,3.44 6.023,7.425-1.056,4.246 4.372,5.338 6.01,9.02 .453,1.018 1.608,4.915.012,5.602-1.425.609-3.826-.638-5.104-1.133-3.052-1.181-6.063-2.477-9.097-3.708-1.97-.8-3.985-1.487-5.984-2.214-2.45-.889-8.798-1.949-10.014-4.575-1.555-3.328 7.111-4.947 8.719-4.991 2.516.287 3.422.095 4.583-2.141z" fill="#c6c6c6"/>
 <path d="m61.332,6.195c-1.051.104-2.075.299-3.027.657-.492.185-.965.414-1.408.7-.113.071-.226.145-.334.225-.176.126-.347.26-.512.407-.533.473-1.016,1.048-1.428,1.758-.081.14-.138.271-.188.403-.967,2.458 3.021,3.533 4.842,4.232 5.233,2.003 10.541,3.755 15.715,5.921 2.584,1.084 6.841,3.754 9.799,3.116 .886-.191 1.325-.742 1.485-1.478 .153-.695.058-1.554-.201-2.47-.068-.246-.15-.495-.237-.745-.073-.206-.155-.412-.239-.616-.167-.417-.351-.829-.546-1.228-.432-.886-.899-1.692-1.302-2.312-.144-.219-.276-.418-.397-.583s-.224-.299-.31-.396c-.152-.171-.339-.315-.533-.455-.717-.519-1.645-.873-2.32-1.385l-.082-.075c-1.654-1.315-.833-2.419-.569-4.263 .584-4.078-3.279-7.329-7.249-7.091-3.913.234-4.021,5.546-7.123,5.553h-.23c-.458.001-.92.003-1.387.01-.426.006-.853.019-1.278.042-.316.02-.628.043-.941.073zm6.659-1.894c.973-1.874 2.621-3.389 4.852-3.285 4.058.189 7.015,3.44 6.023,7.425-1.056,4.246 4.372,5.338 6.01,9.02 .453,1.018 1.608,4.915.012,5.602-1.425.609-3.826-.638-5.104-1.133-3.052-1.181-6.063-2.477-9.097-3.708-1.97-.8-3.985-1.487-5.984-2.214-2.45-.889-8.798-1.949-10.014-4.575-1.555-3.328 7.111-4.947 8.719-4.991 2.516.287 3.422.095 4.583-2.141z" fill="url(#bb)"/>
 <path d="m73.034,7.315c2.862,1.095 4.442-3.031 1.577-4.125-2.862-1.096-4.44,3.031-1.577,4.125zm-.984-2.741c.797-2.086 4.345-.729 3.548,1.356s-4.347.73-3.548-1.356z" fill="url(#ba)"/>
 <path d="m76.534,6.288c.445-1.166.045-2.171-.704-2.847-.782-.503-1.891-.834-2.785-.835-.82.143-1.559.638-1.931,1.61-1.26,3.293 4.16,5.364 5.42,2.072zm-1.923-3.098c2.865,1.095 1.285,5.22-1.577,4.125s-1.285-5.221 1.577-4.125z" fill="#c6c6c6"/>
 <path d="m76.534,6.288c.445-1.166.045-2.171-.704-2.847-.782-.503-1.891-.834-2.785-.835-.82.143-1.559.638-1.931,1.61-1.26,3.293 4.16,5.364 5.42,2.072zm-1.923-3.098c2.865,1.095 1.285,5.22-1.577,4.125s-1.285-5.221 1.577-4.125z" fill="url(#az)"/>
 <path d="m75.83,3.441c.7.45 1.136,1.031.905,1.635 .911-2.382-4.274-4.017-5.112-1.822 .178-.461.737-.649 1.422-.649 .894.002 2.003.333 2.785.836z" fill="#eaeaea"/>
 <path d="m56.609,12.484c-.135.355 27.114,10.774 27.251,10.419s-27.115-10.773-27.251-10.419z" fill="#eaeaea"/>
 <path d="m81.102,16.476c-3.165-3.24-7.145-5.411-11.474-6.669-1.92-.557-11.784-2.653-13.05.656-.129.339 27.813,11.053 27.953,10.687 .363-.953-2.909-4.14-3.429-4.674z" fill="#afafaf"/>
 <path d="m59.973,8.365c.779-2.04 12.852,2.034 13.872,2.474 .912.396 9.697,4.831 9.009,6.629 .944-2.465-8.892-7.233-10.177-7.725-1.18-.451-11.812-3.715-12.704-1.378z" fill="#eaeaea"/>
 <path d="m27.737,6.061-8.215,1.594c-3.149.613-6.31,1.159-9.491,1.606-1.014.145-7.542.049-6.982,2.211 2.907,11.234 5.131,22.608 7.337,33.99 .616.269 1.231.515 1.844.744-1.124-5.784-2.271-11.562-3.502-17.32l-1.143-3.568-2.79-8.704c-.549-1.719-.889-1.805.563-2.29-.099-.388-.184-.78-.284-1.168-.509-1.989 2.911-1.821 3.975-1.956 3.613-.456 7.22-.974 10.795-1.667 3.115-.606 6.229-1.208 9.344-1.814 .336-.064.665-.124.977-.148 .1-.048.2-.083.3-.096-.013.031-.031.06-.042.089 .122-.001.238.007.351.022 .109-.054.215-.083.308-.051-.012.035-.029.067-.041.102 .487.143.856.509 1.005,1.309 1.015,5.413 2.046,10.815 3.093,16.219 .048.248.102.494.151.741 .208-.052.412-.118.621-.165 .059-1.043.186-2.103.457-3.034-.644-3.322-1.06-6.806-1.667-10.213l-.147-.768c-.359-1.917-.786-3.808-1.366-5.621-.538-1.681-4.375-.253-5.451-.044zm2.154,1.522c-.026.047.652-1.211.838-1.1 .598.349-.509,1.037-.838,1.1z" fill="#fff"/>
 <path d="m6.196,26.003c-1.065-4.841-2.201-9.671-3.439-14.471-.533-2.067 2.535-1.949 3.701-2.095 3.804-.471 7.603-1.026 11.367-1.755l10.228-1.979c1.208-.235 4.304-1.451 5.228-.075 .517.771.522,2.123.683,2.987 .195,1.037.396,2.074.591,3.111 .049.256.1.51.147.768 .285,1.503.569,3.007.857,4.509 .326,1.705.674,3.406 1.018,5.108 .068-.171.143-.335.223-.489-.651-3.261-1.289-6.522-1.912-9.79-.306-1.614-.436-7.67-3.232-7.131l-9.368,1.819c-6.03,1.168-12.067,2.23-18.176,2.897-2.827.307-1.156,4.096-.768,5.665 1.119,4.561 2.179,9.134 3.157,13.728 1.059,4.979 1.991,9.986 2.96,14.982 .088.449.167.904.247,1.361 .118.055.236.108.355.162-1.235-6.447-2.455-12.9-3.867-19.312z" fill="url(#ay)"/>
 <path d="m36.576,22.11c-.343-1.702-.691-3.403-1.018-5.108-.289-1.502-.572-3.005-.857-4.509 .606,3.407 1.023,6.892 1.667,10.213 .06-.206.131-.404.208-.596z" fill="#fff"/>
 <path d="m36.576,22.11c-.343-1.702-.691-3.403-1.018-5.108-.289-1.502-.572-3.005-.857-4.509 .606,3.407 1.023,6.892 1.667,10.213 .06-.206.131-.404.208-.596z" fill="url(#ax)"/>
 <path d="m3.049,11.472c-.56-2.162 5.968-2.065 6.983-2.211 3.181-.447 6.341-.993 9.491-1.606l8.215-1.594c1.075-.208 4.913-1.636 5.451.044 .58,1.813 1.007,3.703 1.366,5.621-.196-1.037-.396-2.074-.591-3.111-.16-.864-.166-2.216-.683-2.987-.923-1.376-4.02-.16-5.228.075l-10.228,1.979c-3.763.728-7.562,1.284-11.367,1.755-1.167.147-4.234.028-3.702,2.096 1.238,4.799 2.374,9.63 3.439,14.471 1.412,6.412 2.631,12.865 3.867,19.312l.322.147c-2.204-11.383-4.428-22.757-7.335-33.991z" fill="#fff"/>
 <path d="m3.049,11.472c-.56-2.162 5.968-2.065 6.983-2.211 3.181-.447 6.341-.993 9.491-1.606l8.215-1.594c1.075-.208 4.913-1.636 5.451.044 .58,1.813 1.007,3.703 1.366,5.621-.196-1.037-.396-2.074-.591-3.111-.16-.864-.166-2.216-.683-2.987-.923-1.376-4.02-.16-5.228.075l-10.228,1.979c-3.763.728-7.562,1.284-11.367,1.755-1.167.147-4.234.028-3.702,2.096 1.238,4.799 2.374,9.63 3.439,14.471 1.412,6.412 2.631,12.865 3.867,19.312l.322.147c-2.204-11.383-4.428-22.757-7.335-33.991z" fill="url(#aw)"/>
 <path d="m30.331,7.781c-.066.146-.144.288-.21.434 .232-.311.453-.53.652-.628-.113-.015-.229-.023-.351-.022-.04.092-.088.182-.131.273l.04-.057z" fill="#f4f4f4"/>
 <path d="m8.087,13.447-.001-.001c-.318-.292-.9-.63-1.034-1.047l1.034,1.047 .001.001 .208-.067c-.583-.578-1.095-1.037-1.233-1.011 .129-.024.289-.002.462.04l.101.03c.433.125.95.391 1.452.69l7.14-2.287c1.763-.565 1.405.04 1.953,1.747l2.339,7.302c.543.353 1.083.708 1.619,1.073 .44-.711.877-1.421 1.311-2.136 1.081-2.019 2.23-4.023 3.454-5.981 .776-1.655 2.035-4.681 3.271-5.276-.312.024-.641.084-.977.148-3.115.606-6.229,1.208-9.344,1.814-3.575.693-7.182,1.211-10.795,1.667-1.064.135-4.484-.033-3.975,1.956 .1.388.185.78.284,1.168l.394-.13 2.336-.747z" fill="#f4f4f4"/>
 <path d="m22.583,20.444c-.203.331-.377.563-.453.521l.13.086 .323-.607z" fill="#f4f4f4"/>
 <path d="m22.661,21.333 .008.009c1.181.816 2.343,1.662 3.463,2.558 1.366,1.09 3.021,2.379 4.083,3.925 1.594-.839 3.296-1.482 5.074-1.919-.049-.248-.103-.494-.151-.741-1.047-5.403-2.078-10.806-3.093-16.219-.149-.8-.519-1.166-1.005-1.309-1.89,4.917-5.037,9.644-7.872,14.05l-.507-.354z" fill="#f4f4f4"/>
 <path d="m22.659,21.334 .001-.002c-.023-.015-.046-.031-.07-.048l.069.05z" fill="#f4f4f4"/>
 <path d="m8.728,28.886c1.23,5.758 2.378,11.536 3.502,17.32 .794.298 1.569.565 2.303.803-1.936-6.042-3.872-12.082-5.805-18.123z" fill="#f4f4f4"/>
 <path d="m9.077,13.129c-.502-.299-1.019-.565-1.452-.69 .388.128.802.415 1.211.767l.241-.077z" fill="#c6c6c6"/>
 <path d="m22.257,21.057 .003-.006-.13-.086-.004.001c.06.042.07.118.078.196 .019-.034.035-.069.053-.105z" fill="#c6c6c6"/>
 <path d="m22.451,21.621c.085-.11.158-.208.208-.287l-.069-.05-.333-.228c.2.137.24.336.194.565z" fill="#c6c6c6"/>
 <path d="m21.43,22.767 .001.008 .012-.027-.013.019z" fill="#c6c6c6"/>
 <path d="m21.705,23.625c.327,1.023.654,2.047.982,3.07 .729.907 1.388,1.852 1.924,2.851 .317.591.497,1.222.584,1.872 1.504-1.412 3.187-2.627 5.021-3.592-1.063-1.546-2.718-2.835-4.083-3.925-1.121-.896-2.282-1.742-3.463-2.558 .952.67-.112,1.585-.965,2.282z" fill="#c6c6c6"/>
 <path d="m7.063,12.369c.146-.023.302-.002.462.04-.173-.043-.334-.065-.462-.04z" fill="#c6c6c6"/>
 <path d="m22.125,20.966 .002-.002c-.535-.365-1.076-.72-1.619-1.073l.741,2.311c.369-.534.744-1.019.876-1.236z" fill="#c6c6c6"/>
 <path d="m8.295,13.38c-.07.022-.14.044-.208.067 .657.604 1.341,1.21 2.041,1.822-.422-.439-1.17-1.235-1.833-1.889z" fill="#fdfdfd"/>
 <path d="m16.747,47.696c.421.126.851.228 1.273.349-.002-.102-.016-.199-.016-.3 0-5.9 2.396-11.322 6.23-15.372-.001-.01.001-.021 0-.031-.001-.02 0-.041-.001-.063-.023-.43-.088-.849-.187-1.258-.029-.114-.049-.231-.085-.344-.521-1.627-1.525-3.163-2.718-4.605 .878,1.155 1.661,2.358 2.303,3.621-.644-1.263-1.428-2.468-2.308-3.626-1.747-2.113-3.909-4.026-5.644-5.705-1.694-1.635-3.429-3.225-5.175-4.801-.051-.045-.144-.14-.262-.262-.71-.621-1.405-1.237-2.071-1.852l-2.336.748-.394.13c-1.451.484-1.111.571-.563,2.29l2.79,8.704 1.143,3.568 5.805,18.123c.806.258 1.562.488 2.216.686z" fill="#fdfdfd"/>
 <path d="m24.234,32.279c-.023-.431-.086-.851-.187-1.258 .099.409.163.827.187,1.258z" fill="#fdfdfd"/>
 <path d="m24.235,32.372 .001-.002c0-.009 0-.018-.001-.027 .002.01-.001.019 0,.029z" fill="#fdfdfd"/>
 <path d="m11.065,15.489c1.534,1.462 3.108,2.878 4.661,4.317 2.295,2.126 4.92,4.348 6.961,6.888-.328-1.023-.656-2.046-.982-3.07-.48.391-.895.713-.839.882-.104-.325.071-.771.353-1.233 .068-.167.141-.333.214-.498l-.001-.008c-.497.701-1.041,1.337-1.036,1.354-.127-.396.358-1.204.855-1.919l-.741-2.311-2.339-7.302c-.548-1.708-.19-2.312-1.953-1.747l-7.14,2.287-.24.077c.883.761 1.741,1.823 2.227,2.283z" fill="#fdfdfd"/>
 <path d="m24.234,32.279c.001.021 0,.042.001.063 0-.021 0-.042-.001-.063z" fill="#9a9a9a"/>
 <path d="m10.158,15.299c.118.122.211.217.262.262 1.746,1.576 3.481,3.166 5.175,4.801 1.735,1.679 3.897,3.592 5.644,5.705-.163-.215-.333-.428-.503-.641-3.009-3.748-6.995-6.996-10.578-10.127z" fill="#9a9a9a"/>
 <path d="m24.047,31.021c.1.407.163.827.187,1.258 .001.021.001.043.001.064 .001.009.001.018.001.027 .31-.328.629-.645.958-.953-.087-.65-.267-1.281-.584-1.872-.536-.999-1.194-1.944-1.924-2.851-2.042-2.541-4.667-4.762-6.961-6.888-1.553-1.439-3.127-2.854-4.661-4.317-.486-.46-1.344-1.522-2.228-2.284-.41-.353-.824-.639-1.211-.767l-.101-.03c-.16-.042-.315-.063-.462-.04 .138-.026.65.434 1.233,1.011 .663.654 1.41,1.45 1.833,1.889 3.592,3.135 7.594,6.398 10.608,10.157 .171.214.343.428.507.646 1.193,1.443 2.197,2.978 2.718,4.605 .037.114.058.231.086.345-.008-.036-.007-.073-.017-.109 .011.036.009.073.017.109z" fill="#9a9a9a"/>
 <path d="m24.235,32.343c0-.021 0-.043-.001-.064-.023-.431-.088-.849-.187-1.258-.008-.036-.007-.073-.017-.109 .01.036.008.073.017.109 .099.409.163.828.187,1.258 .001.021.001.042.001.063 .001.01-.001.021 0,.031-.001-.011.002-.02 0-.03z" fill="#c4c4c4"/>
 <path d="m21.239,26.066c.879,1.159 1.664,2.363 2.308,3.626-.642-1.263-1.425-2.466-2.303-3.621-.165-.218-.336-.432-.507-.646 .17.213.339.426.502.641z" fill="#c4c4c4"/>
 <path d="m20.736,25.425c-3.015-3.758-7.016-7.021-10.608-10.157-.7-.612-1.384-1.218-2.041-1.822l-.001-.001 .001.001c.667.615 1.361,1.231 2.071,1.852 3.583,3.132 7.569,6.38 10.578,10.127z" fill="#c4c4c4"/>
 <path d="m8.085,13.445-1.034-1.047c.135.417.716.755 1.034,1.047z" fill="#bcbcbc"/>
 <path d="m30.121,8.214c-2.081,4.55-4.758,8.929-7.46,13.118l.507.354c2.835-4.406 5.982-9.133 7.872-14.05 .012-.035.029-.067.041-.102-.093-.032-.199-.003-.308.051-.199.1-.42.319-.652.629z" fill="#fafafa"/>
 <path d="m22.451,21.621c-.133.641-1.003,1.528-1.378,1.99 .044-.114.099-.225.146-.337-.281.462-.457.908-.353,1.233-.055-.169.359-.491.839-.882 .854-.696 1.917-1.611.964-2.283-.003-.003-.004-.006-.008-.009l-.001.002c-.052.079-.124.176-.209.286z" fill="#e4e4e4"/>
 <path d="m22.13,20.965c.075.041.25-.191.453-.521 .28-.54.568-1.077.856-1.616-.434.715-.871,1.425-1.311,2.136l-.002.002 .004-.001z" fill="#e3e1e1"/>
 <path d="m22.204,21.162c-.008-.078-.019-.154-.078-.196-.133.217-.507.702-.876,1.236-.497.716-.982,1.524-.855,1.919-.005-.017.539-.653 1.036-1.354l.014-.019c.238-.535.493-1.064.759-1.586z" fill="#b8b6b6"/>
 <path d="m30.729,6.483c-.187-.111-.864,1.147-.838,1.1 .329-.063 1.436-.751.838-1.1z" fill="#edebeb"/>
 <path d="m26.893,12.847c1.076-1.725 2.196-3.417 3.398-5.01 .042-.091.091-.181.131-.273l.042-.089c-.1.014-.2.048-.3.096-1.237.595-2.496,3.621-3.271,5.276z" fill="#e3e1e1"/>
 <path d="m22.26,21.051-.003.006c.111.075.222.152.333.228l.07.048c2.703-4.189 5.379-8.568 7.46-13.118 .066-.146.144-.288.21-.434l-.04.056c-1.203,1.594-2.322,3.285-3.398,5.01-1.224,1.958-2.374,3.962-3.454,5.981-.288.539-.576,1.076-.856,1.616-.103.202-.217.406-.322.607z" fill="#e8e6e6"/>
 <path d="m22.451,21.621c.046-.229.006-.428-.193-.564-.018.036-.034.071-.054.105-.266.521-.521,1.051-.76,1.586l-.012.027c-.073.165-.146.331-.214.498-.046.113-.102.224-.146.337 .376-.461 1.246-1.348 1.379-1.989z" fill="#d4d2d2"/>
 <path d="m18.723,47.744c0,.168.022.332.026.499l.12.033c-.004-.178-.027-.352-.027-.532 0-10.218 7.391-18.963 17.033-21.129 .001-.041.004-.083.004-.125-9.7,2.171-17.156,10.983-17.156,21.254z" fill="#d6d6d6"/>
 <path d="m20.256,47.289c0,.467.04.925.071,1.385 4.042,1.014 8.169,1.732 12.33,2.213 .102-.46.21-.919.309-1.374 .165-.754.299-1.514.451-2.271-.361.055-.72.069-1.071-.027-2.311-.63-1.405-4.834-1.801-6.556-.66-2.868-3.899-.477-5.629-.055-2.418.591 1.16-5.03 1.616-5.585 1.095-1.339 2.375-2.565 3.815-3.526 .17-.113 3.109-1.589 3.122-1.199 .036,1.188-8.604,6.725-1.709,5.482 3.485-.629.966,4.772 2.428,6.222 .046.045.104.061.154.097 .666-4.172 1.158-8.37 1.458-12.593 .039-.524.044-1.174.055-1.881-8.853,2.149-15.599,10.232-15.599,19.668z" fill="#d6d6d6"/>
 <path d="m19.319,48.221c0,.061.01.119.01.18 .17.045.34.096.511.14-.009-.266-.041-.527-.041-.795 0-9.685 6.951-17.981 16.055-20.138v-.018c-9.368,2.164-16.535,10.681-16.535,20.631z" fill="#d6d6d6"/>
 <path d="m18.842,47.744c0,.18.023.354.027.532 .154.042.306.085.46.125 0-.061-.01-.119-.01-.18 0-9.95 7.167-18.467 16.535-20.632 .005-.315.011-.639.021-.974-9.642,2.166-17.033,10.911-17.033,21.129z" fill="#fff"/>
 <path d="m19.8,47.745c0,.269.031.53.041.795l.487.133c-.032-.46-.071-.918-.071-1.385 0-9.436 6.746-17.519 15.598-19.667v-.015c-9.104,2.158-16.055,10.454-16.055,20.139z" fill="#c6c6c6"/>
 <path d="m62.816,50.392c.104-.871.176-1.752.176-2.648 0-.165-.021-.324-.025-.489 0,.013-.002.024-.003.036-.095,1.036-.173,2.074-.25,3.112l.102-.011z" fill="#f4f2f2"/>
 <path d="m62.816,50.392c.104-.871.176-1.752.176-2.648 0-.165-.021-.324-.025-.489 0,.013-.002.024-.003.036-.095,1.036-.173,2.074-.25,3.112l.102-.011z" fill="url(#av)"/>
 <path d="m62.816,50.392-.103.011c-.019.242-.042.483-.061.724l.048-.004c.038-.243.086-.483.116-.731z" fill="#d8d8d8"/>
 <path d="m62.816,50.392-.103.011c-.019.242-.042.483-.061.724l.048-.004c.038-.243.086-.483.116-.731z" fill="url(#au)"/>
 <path d="m35.29,25.905c.022.117.047.233.071.35 .178-.044.354-.1.535-.14 .005-.125.008-.249.015-.375-.21.048-.413.114-.621.165z" fill="#fff"/>
 <path d="m35.29,25.905c.022.117.047.233.071.35 .178-.044.354-.1.535-.14 .005-.125.008-.249.015-.375-.21.048-.413.114-.621.165z" fill="url(#at)"/>
 <path d="m30.404,28.125c1.558-.816 3.221-1.443 4.957-1.87-.024-.117-.049-.233-.071-.35-1.778.437-3.48,1.08-5.074,1.919 .067.099.126.201.188.301z" fill="#f4f4f4"/>
 <path d="m30.404,28.125c1.558-.816 3.221-1.443 4.957-1.87-.024-.117-.049-.233-.071-.35-1.778.437-3.48,1.08-5.074,1.919 .067.099.126.201.188.301z" fill="url(#as)"/>
 <path d="m25.195,31.417c.02.144.037.287.045.432 1.534-1.473 3.27-2.73 5.163-3.724-.062-.1-.121-.202-.188-.3-1.833.965-3.516,2.18-5.02,3.592z" fill="#c6c6c6"/>
 <path d="m25.195,31.417c.02.144.037.287.045.432 1.534-1.473 3.27-2.73 5.163-3.724-.062-.1-.121-.202-.188-.3-1.833.965-3.516,2.18-5.02,3.592z" fill="url(#b)"/>
 <path d="m24.237,32.37-.001.002c.007.176-.015.36-.018.54l.03-.035c.004-.17-.004-.339-.011-.507z" fill="#fdfdfd"/>
 <path d="m24.237,32.37-.001.002c.007.176-.015.36-.018.54l.03-.035c.004-.17-.004-.339-.011-.507z" fill="url(#a)"/>
 <path d="m18.005,47.744c0,.101.014.198.016.3l.365.098c-.003-.134-.021-.265-.021-.398 0-5.669 2.243-10.882 5.852-14.832 .004-.18.026-.364.019-.54-3.836,4.05-6.231,9.472-6.231,15.372z" fill="#fdfdfd"/>
 <path d="m18.005,47.744c0,.101.014.198.016.3l.365.098c-.003-.134-.021-.265-.021-.398 0-5.669 2.243-10.882 5.852-14.832 .004-.18.026-.364.019-.54-3.836,4.05-6.231,9.472-6.231,15.372z" fill="url(#ar)"/>
 <path d="m24.237,32.37c.007.167.015.336.011.507 .324-.351.65-.698.993-1.029-.008-.145-.026-.288-.045-.432-.33.31-.65.626-.959.954z" fill="#9a9a9a"/>
 <path d="m24.237,32.37c.007.167.015.336.011.507 .324-.351.65-.698.993-1.029-.008-.145-.026-.288-.045-.432-.33.31-.65.626-.959.954z" fill="url(#aq)"/>
 <path d="m24.235,32.372c.007.176-.015.36-.019.54h.001c.004-.18.025-.364.018-.54z" fill="#c4c4c4"/>
 <path d="m24.235,32.372c.007.176-.015.36-.019.54h.001c.004-.18.025-.364.018-.54z" fill="url(#a)"/>
 <path d="m35.361,26.255c-1.736.427-3.399,1.054-4.957,1.87-1.893.993-3.629,2.251-5.163,3.724-.343.331-.669.678-.993,1.029l-.03.035h-.001c-3.609,3.95-5.852,9.163-5.852,14.832 0,.134.018.265.021.398 .121.035.243.068.364.1-.004-.167-.026-.33-.026-.499 0-10.271 7.457-19.083 17.157-21.254 .004-.123.011-.25.017-.374-.183.039-.359.095-.537.139z" fill="#d6d6d6"/>
 <path d="m35.361,26.255c-1.736.427-3.399,1.054-4.957,1.87-1.893.993-3.629,2.251-5.163,3.724-.343.331-.669.678-.993,1.029l-.03.035h-.001c-3.609,3.95-5.852,9.163-5.852,14.832 0,.134.018.265.021.398 .121.035.243.068.364.1-.004-.167-.026-.33-.026-.499 0-10.271 7.457-19.083 17.157-21.254 .004-.123.011-.25.017-.374-.183.039-.359.095-.537.139z" fill="url(#b)"/>
 <path d="m31.759,35.776c-6.895,1.243 1.745-4.294 1.709-5.482-.012-.39-2.952,1.086-3.122,1.199-1.44.961-2.72,2.188-3.815,3.526-.456.556-4.034,6.177-1.616,5.585 1.73-.422 4.97-2.813 5.629.055 .396,1.722-.51,5.925 1.801,6.556 .351.096.71.082 1.071.027 .342-1.71.65-3.426.924-5.146-.051-.037-.108-.052-.154-.097-1.461-1.451 1.058-6.853-2.427-6.223z" fill="#adadad"/>
 <path d="m35.079,51.123c.151-.578.336-1.14.441-1.616 .717-3.25 1.308-6.527 1.77-9.824 .45-3.218.765-6.458 1.015-9.697 .126-1.634-.083-3.659.451-5.234 1.078-3.173 5.898-1.933 8.4-1.779 1.84.111 3.682.225 5.52.337 .53.031 2.463-.169 2.961.16 .102-.366.196-.733.302-1.098-.007.351-.047.844-.092,1.416 .248,1.082-.023,4.857.065,5.368 .436,2.487 2.575,2.34 4.668,2.737 .509.097 1.081.15 1.556.275 .98.015 1.94-.014 2.793-.026-.488.174-1.146.416-1.891.667 .073.197.091.438-.01.763-.87,2.82-1.43,5.741-1.84,8.66-.414,2.958-.408,6.053-.609,9.083l1.515-.131c.061-.831.1-1.664.168-2.494 .454-5.47 1.134-11 2.821-16.243 .8-2.487-2.922-5.846-4.424-7.486-1.953-2.129-3.223-3.342-6.021-3.528l-10.94-.732c-2.375-.16-6.862-1.025-6.982,2.65-.175,5.332-.59,10.687-1.331,15.967-.527,3.754-.988,7.864-2.001,11.642 .564.059 1.129.11 1.695.163z" fill="#fff"/>
 <path d="m36.368,22.707c-.271.931-.398,1.99-.457,3.034-.007.126-.009.25-.015.375s-.013.251-.017.374c0,.042-.003.084-.004.125-.009.335-.015.659-.021.974v.018 .015c-.011.707-.016,1.357-.055,1.881-.301,4.223-.792,8.42-1.458,12.593-.274,1.72-.583,3.436-.924,5.146-.152.757-.287,1.517-.451,2.271-.099.454-.207.914-.309,1.374 .243.027.486.045.727.071 1.014-3.778 1.475-7.888 2.001-11.642 .74-5.281 1.156-10.636 1.331-15.967 .121-3.675 4.607-2.81 6.982-2.65l10.94.732c2.798.187 4.067,1.399 6.021,3.528 1.502,1.641 5.224,5 4.424,7.486-1.688,5.244-2.367,10.773-2.821,16.243-.068.83-.107,1.663-.168,2.494l.56-.055c.019-.241.042-.482.061-.724 .077-1.038.155-2.077.25-3.112 .001-.012.003-.023.003-.036 .467-5.067 1.163-10.22 2.806-15.058 .713-2.1-2.85-5.526-4.057-6.877-1.426-1.598-3.377-4.219-5.692-4.375l-7.18-.481-3.037-.203-.436-.029-.386-.026-3.477-.233-1.143-.077c-.227-.031-.427-.03-.63-.031-.323-.004-.62.021-.89.083-.3.07-.58.166-.824.309-.187.109-.356.238-.513.387-.287.269-.514.605-.709.977-.081.154-.155.318-.223.489-.078.192-.149.39-.209.597z" fill="#a8a8a8"/>
 <path d="m56.777,31.077c1.471.862 3.457,1.062 5.358,1.091-.475-.125-1.047-.179-1.556-.275-2.093-.397-4.232-.25-4.668-2.737-.089-.511.183-4.286-.065-5.368-.2,2.461-.539,6.427.931,7.289z" fill="#f4f2f2"/>
 <path d="m61.188,42.231c.41-2.919.97-5.84 1.84-8.66 .101-.324.083-.565.01-.763-2.916.983-7.265,2.127-8.815.069-.925-1.225.195-4.452.486-5.746 .275-1.229.594-2.448.928-3.663-.498-.329-2.431-.129-2.961-.16-1.838-.112-3.68-.227-5.52-.337-2.502-.154-7.322-1.394-8.4,1.779-.535,1.576-.325,3.601-.451,5.234-.25,3.239-.565,6.479-1.015,9.697-.462,3.296-1.053,6.574-1.77,9.824-.105.476-.29,1.039-.441,1.616 4.607.434 9.236.62 13.814.62 3.875,0 7.785-.128 11.687-.428 .2-3.029.194-6.125.608-9.082z" fill="#f4f2f2"/>
 <path d="m54.223,32.877c1.551,2.058 5.899.914 8.815-.069 .745-.251 1.402-.493 1.891-.667-.853.012-1.813.041-2.793.026-1.901-.029-3.888-.229-5.358-1.091s-1.131-4.828-.931-7.29c.045-.572.085-1.064.092-1.416-.105.365-.2.732-.302,1.098-.334,1.214-.652,2.434-.928,3.663-.291,1.294-1.411,4.522-.486,5.746z" fill="#c6c6c6"/>
</svg>
